<svg id="Layer_1" data-name="Layer 1" xmlns="http://www.w3.org/2000/svg" viewBox="0 0 65.22 58.09"><defs><style>.cls-1{fill:#fff;}</style></defs><path class="cls-1" d="M8.52,2.19H57.16l-.42,4.75L54.91,27.69c-.69,7.81-1.41,15.62-2.07,23.44a1.31,1.31,0,0,1-1.11,1.41c-6,1.65-12,3.35-18.06,5a3.43,3.43,0,0,1-1.77,0c-5.33-1.46-10.64-3-16-4.46-3.09-.86-3-.86-3.3-4.08-.64-7.74-1.34-15.49-2-23.23S9.21,10,8.52,2.19ZM19.35,33.91c.29,3.05.58,6,.81,9,.05.67.32.9.94,1.06,3.66,1,7.31,2,11,3a3.21,3.21,0,0,0,1.57,0c3.35-.89,6.69-1.83,10-2.75,1.82-.51,1.8-.51,2-2.42q1.05-11.94,2.13-23.88c.16-1.79.3-3.58.45-5.4H17.44l.43,5.78H41.59l-.46,6.28H18.44l.63,5.95H40.62c-.29,2.67-.54,5.22-.87,7.77a1.25,1.25,0,0,1-.73.84c-1.87.56-3.76,1.06-5.65,1.54a2.4,2.4,0,0,1-1.16,0c-1.82-.46-3.62-1-5.44-1.45a1,1,0,0,1-.89-1.11c-.08-1.37-.23-2.73-.36-4.14Z"/></svg>