<svg id="Layer_1" data-name="Layer 1" xmlns="http://www.w3.org/2000/svg" viewBox="0 0 65.22 58.09"><defs><style>.cls-1{fill:#fff;}</style></defs><path class="cls-1" d="M7.18,3.07h51.2c-.09,1.27-.16,2.53-.27,3.78Q57.58,12.73,57,18.63c-.35,3.73-.73,7.47-1.07,11.21-.26,2.8-.47,5.61-.73,8.42-.35,3.78-.72,7.55-1.07,11.32-.11,1.24-.14,2.48-.32,3.71a1.38,1.38,0,0,1-.77,1c-6.64,1.54-13.29,3.08-20,4.45-1.13.23-2.43-.34-3.63-.61C24,56.9,18.48,55.65,13,54.47a1.5,1.5,0,0,1-1.38-1.65c-.28-3.89-.7-7.78-1-11.66-.26-2.88-.48-5.77-.74-8.65-.34-3.7-.71-7.4-1.05-11.1-.26-2.76-.5-5.53-.75-8.3-.27-3-.56-6.06-.83-9.09C7.15,3.73,7.18,3.44,7.18,3.07Zm16.12,16h2.78c6.79,0,13.57,0,20.36,0,.87,0,1.38-.1,1.45-1.17a41.3,41.3,0,0,1,.65-4.11c.23-1.38.23-1.38-1.21-1.38H19.4c-.64,0-1.28,0-1.92,0s-.76.31-.7.85q1,8.1,2,16.19c.11.85.45,1.19,1.38,1.18,4.52,0,9,0,13.57,0h5.09c.58,0,1.08.07,1,.85-.35,2.67-.67,5.36-1.09,8a1.7,1.7,0,0,1-.92,1.07,41.9,41.9,0,0,1-4.18,1.68,2.85,2.85,0,0,1-1.71,0,35.15,35.15,0,0,1-4.19-1.67,2.47,2.47,0,0,1-1.1-1.24c-.35-.94-.48-2-.77-2.93-.08-.27-.39-.66-.61-.66-1.86-.06-3.72,0-5.73,0,.61,2.94,1.14,5.7,1.77,8.44.08.36.61.71,1,.88,3.16,1.3,6.34,2.59,9.54,3.79a2.82,2.82,0,0,0,1.9,0c3.06-1.15,6.06-2.46,9.13-3.58a2.08,2.08,0,0,0,1.55-2c0-.75.15-1.5.23-2.24.52-4.66,1.05-9.32,1.56-14,.11-1,.16-1.91.25-3H41.72c-5.39,0-10.78,0-16.17,0-.4,0-1.06-.26-1.15-.54C24,22.1,23.7,20.74,23.3,19.09Z"/></svg>