<svg id="Layer_1" data-name="Layer 1" xmlns="http://www.w3.org/2000/svg" viewBox="0 0 65.22 58.09"><defs><style>.cls-1{fill:#fff;}</style></defs><path class="cls-1" d="M44.58,54.67l-1.37-.13A27.42,27.42,0,0,1,33.62,52l-.55-.3,2.14-8.87,1.42.69a24.2,24.2,0,0,0,8.21,2.22,12.84,12.84,0,0,0,5.67-.57,4.71,4.71,0,0,0,3.23-3.34,4.57,4.57,0,0,0-1.33-4.7,11.93,11.93,0,0,0-3.69-2.24c-1.53-.65-3.11-1.21-4.64-1.86a23.06,23.06,0,0,1-6.87-4.26A11.74,11.74,0,0,1,33.33,22,12.91,12.91,0,0,1,38.58,8.75a17.94,17.94,0,0,1,8.14-3.27,30.79,30.79,0,0,1,7.85-.14,27.15,27.15,0,0,1,7.78,1.88l.35.15.07.07-2.67,9-1.38-.65A18.71,18.71,0,0,0,50.56,14a9.06,9.06,0,0,0-3.87.78,4.24,4.24,0,0,0-2.6,3,4,4,0,0,0,1.49,4.21,12.88,12.88,0,0,0,3.2,1.88c2.06.9,4.15,1.73,6.2,2.65a19.39,19.39,0,0,1,5.81,3.84,12.32,12.32,0,0,1,3.74,8.09c0,.14,0,.27.06.41v2l-.12.89a13.18,13.18,0,0,1-5.53,9.44,19.55,19.55,0,0,1-9.48,3.37c-.7.08-1.41.13-2.11.19Z"/><path class="cls-1" d="M8.11,54.67l-2-.19A25.47,25.47,0,0,1,2,53.68c-.31-.09-.44-.18-.38-.56.39-2.72.74-5.45,1.11-8.18a.36.36,0,0,1,0-.11c.8.18,1.6.41,2.4.54a14.54,14.54,0,0,0,4.7.13,5.35,5.35,0,0,0,4.53-3.94,15.39,15.39,0,0,0,.69-4.91q0-14.94,0-29.89V6.32H26.32v.31q0,15,0,30.06a25.08,25.08,0,0,1-1.37,8.58,13.15,13.15,0,0,1-10.1,8.8c-1.28.29-2.6.37-3.91.55l-.31.05Z"/></svg>