<svg id="Layer_1" data-name="Layer 1" xmlns="http://www.w3.org/2000/svg" viewBox="0 0 65.22 58.09"><defs><style>.cls-1{fill:#fcf5f2;}</style></defs><path class="cls-1" d="M26.59,19.2,48.84,6.35a.62.62,0,0,1,.07.45V31.64a.63.63,0,0,1-.3.65q-7.17,4.11-14.33,8.26l-.18.08a.69.69,0,0,1-.36-.13c-1.41-.82-2.82-1.62-4.22-2.44-.95-.55-1.89-1.12-2.83-1.68,1.53-.9,3.06-1.81,4.61-2.7L41.11,28c.18-.1.37-.17.37-.46,0-2.74,0-5.49,0-8.23-.24-.06-.39.11-.55.2l-13.76,8a1.31,1.31,0,0,1-.57.27Z"/><path class="cls-1" d="M26.59,19.2v8.54a11.64,11.64,0,0,1-1.73-.95q-6.37-3.66-12.74-7.36l-.39-.21V36.3c-.21,0-.32-.08-.44-.15-2.22-1.28-4.43-2.57-6.65-3.84a.6.6,0,0,1-.38-.61q0-12.54,0-25.09V6.3Z"/><path class="cls-1" d="M41.47,45q7.19-4.14,14.37-8.28a.93.93,0,0,0,.52-.93c0-2.49,0-5,0-7.48a.75.75,0,0,1,.45-.77c2.31-1.31,4.6-2.64,6.9-4,.17.11.1.25.1.37q0,8.17,0,16.36a.62.62,0,0,1-.36.62L41.91,53.33c-.14.08-.26.21-.44.2Z"/><path class="cls-1" d="M41.47,45v8.54c-.18,0-.3-.12-.44-.2l-14-8.06a.81.81,0,0,1-.47-.8c0-2.53,0-5.06,0-7.59,0-.16-.09-.36.09-.5.94.56,1.88,1.13,2.83,1.68,1.4.82,2.81,1.62,4.22,2.44a.69.69,0,0,0,.36.13c.06.21.26.25.41.33Z"/><path class="cls-1" d="M56.35,19.18V10.87a.39.39,0,0,1,.21-.39L63.64,6.4s.06,0,.1,0,0,.28,0,.42c0,2.55,0,5.09,0,7.64a.7.7,0,0,1-.39.7c-2.21,1.25-4.41,2.53-6.61,3.8Z"/></svg>