<svg id="Layer_1" data-name="Layer 1" xmlns="http://www.w3.org/2000/svg" viewBox="0 0 65.22 58.09"><defs><style>.cls-1{fill:#fff;}</style></defs><path class="cls-1" d="M52.52,11.08a35.4,35.4,0,0,1-.9,7.4c-.09.41,0,.53.39.65a31.76,31.76,0,0,1,8.67,4.05,12.81,12.81,0,0,1,3.21,3,6,6,0,0,1-.31,7.86A18.84,18.84,0,0,1,57,38.8a34.75,34.75,0,0,1-4.93,1.93c-.35.11-.42.25-.34.62a33.86,33.86,0,0,1,.89,8.33,13.9,13.9,0,0,1-1.16,5.62,6,6,0,0,1-7,3.49A20.06,20.06,0,0,1,37,55.33a35.12,35.12,0,0,1-3.87-3.11c-.33-.31-.51-.29-.84,0a30.55,30.55,0,0,1-8,5.56,11.45,11.45,0,0,1-5,1.18A5.55,5.55,0,0,1,14.26,56a11.83,11.83,0,0,1-1.44-5,30.56,30.56,0,0,1,.77-9.53c.1-.5,0-.68-.48-.83a30.6,30.6,0,0,1-8.84-4.21,12.27,12.27,0,0,1-3.09-3,5.82,5.82,0,0,1,.18-7.25,15.8,15.8,0,0,1,4.88-4.06,34.34,34.34,0,0,1,6.86-2.94c.48-.15.53-.36.43-.79a32.9,32.9,0,0,1-.89-7.13,15.14,15.14,0,0,1,1.21-6.76c1.36-2.94,3.94-4,6.93-3.43A20.2,20.2,0,0,1,29,5a36.24,36.24,0,0,1,3,2.49c.58.52.57.53,1.17,0a34.66,34.66,0,0,1,4.6-3.59,18.06,18.06,0,0,1,6.35-2.82,6.15,6.15,0,0,1,5.67,1.3,8.15,8.15,0,0,1,2.26,4.34A18,18,0,0,1,52.52,11.08ZM32.71,19.34a56.45,56.45,0,0,0-5.67.22.83.83,0,0,0-.7.41,73.71,73.71,0,0,0-5.51,9.61.83.83,0,0,0,0,.81,77.61,77.61,0,0,0,5.09,8.91,2.12,2.12,0,0,0,1.84,1.11,78,78,0,0,0,10.48-.06.73.73,0,0,0,.58-.34,73.18,73.18,0,0,0,5.52-9.6,1,1,0,0,0,0-1,73.3,73.3,0,0,0-5.5-9.48.75.75,0,0,0-.62-.36C36.39,19.36,34.55,19.35,32.71,19.34ZM19.46,56a7.09,7.09,0,0,0,2.5-.5A26.12,26.12,0,0,0,30.25,50c.21-.2.19-.33,0-.53a66.19,66.19,0,0,1-5.08-6.14.75.75,0,0,0-.56-.28,55.35,55.35,0,0,1-7.46-1.27c-.49-.13-.64,0-.73.47a37.79,37.79,0,0,0-.74,5.61,15,15,0,0,0,.74,5.86A2.94,2.94,0,0,0,19.46,56ZM49.57,10.85a11.85,11.85,0,0,0-.12-1.94,9.54,9.54,0,0,0-.91-3.4A2.81,2.81,0,0,0,46.47,3.9a6.16,6.16,0,0,0-3.1.43A26,26,0,0,0,35,9.82c-.23.2-.18.34,0,.53a67.82,67.82,0,0,1,5.08,6.14.6.6,0,0,0,.45.26,63.36,63.36,0,0,1,7.73,1.32c.37.09.48,0,.54-.34A36.36,36.36,0,0,0,49.57,10.85Zm12.71,19c0-.14-.05-.34-.1-.53a4.34,4.34,0,0,0-1.23-2c-2.75-2.78-6.28-4.15-9.88-5.38-.26-.09-.33.07-.38.25A64.43,64.43,0,0,1,48,29.55a.85.85,0,0,0,0,.73,59.24,59.24,0,0,1,2.69,7.31c.09.31.2.39.54.28a32.85,32.85,0,0,0,6.16-2.64A14.39,14.39,0,0,0,61,32.46,4,4,0,0,0,62.28,29.86ZM3,30a4.77,4.77,0,0,0,.09.52,5.93,5.93,0,0,0,2.33,3.08,26.94,26.94,0,0,0,8.69,4.33c.45.15.44-.14.52-.4a58.11,58.11,0,0,1,2.62-7.1,1,1,0,0,0,0-.84,62.73,62.73,0,0,1-2.7-7.31c-.1-.35-.23-.36-.53-.26a40,40,0,0,0-3.82,1.46A18.22,18.22,0,0,0,4.3,27.28,4.16,4.16,0,0,0,3,30ZM15.64,11a32,32,0,0,0,.79,6.75c.06.32.18.39.52.31a61.65,61.65,0,0,1,7.62-1.33.8.8,0,0,0,.64-.34,60.36,60.36,0,0,1,5-6.05c.22-.24.2-.34,0-.56a38.74,38.74,0,0,0-3.31-2.68A16.15,16.15,0,0,0,20.49,4c-2.21-.39-3.34,0-4.19,2.33A12.74,12.74,0,0,0,15.64,11ZM49.58,48.74a30.42,30.42,0,0,0-.76-6.59c-.09-.42-.24-.47-.62-.38a59.48,59.48,0,0,1-7.62,1.31.65.65,0,0,0-.5.27A59.76,59.76,0,0,1,35,49.49c-.2.21-.19.31,0,.51a34.9,34.9,0,0,0,3.35,2.72,16.29,16.29,0,0,0,6.38,3.1c2,.35,3.24.13,4.13-2.19A12.67,12.67,0,0,0,49.58,48.74ZM28.93,16.47a68.33,68.33,0,0,1,7.29,0c-.12-.18-.17-.28-.24-.36C35.1,15,34.22,14,33.32,13c-.7-.8-.71-.79-1.45,0-.13.13-.26.26-.38.4A37.77,37.77,0,0,0,28.93,16.47Zm0,26.93a51.59,51.59,0,0,0,3.5,4.05c.24.25.38.07.53-.09.59-.67,1.2-1.32,1.77-2a17.12,17.12,0,0,0,1.53-2A54.33,54.33,0,0,1,28.93,43.4Zm13.63-3.67c.08,0,.11.07.14.07a48.94,48.94,0,0,0,5-.95c.32-.07.24-.24.17-.44-.34-1-.66-2-1-3-.2-.59-.44-1.17-.7-1.87C45,35.7,43.82,37.74,42.56,39.73ZM22.73,20c-1.82.26-3.49.58-5.15,1-.29.06-.28.18-.21.41.32,1.1.68,2.18,1.08,3.26a12,12,0,0,0,.67,1.63C20.24,24.13,21.4,22.11,22.73,20Zm19.76,0c1.31,2.08,2.51,4.1,3.63,6.28.68-1.7,1.23-3.32,1.71-4.95.07-.23,0-.32-.21-.36s-.74-.18-1.11-.25C45.21,20.47,43.92,20.2,42.49,20ZM22.74,39.83c-1.26-2-2.41-3.89-3.42-5.86a3,3,0,0,0-.23-.38C18.5,35,18,36.43,17.58,37.84c-.29.95-.29,1,.68,1.18C19.69,39.34,21.13,39.61,22.74,39.83Z"/></svg>