<svg id="Layer_1" data-name="Layer 1" xmlns="http://www.w3.org/2000/svg" viewBox="0 0 59.29 56.45"><defs><style>.cls-1{fill:#fff;}</style></defs><path class="cls-1" d="M30,0l2.12.59c6.19,1.7,9.55,6.15,11.43,11.94.57,1.78.8,3.66,1.25,5.82a23.8,23.8,0,0,1-2.93-.9,1.75,1.75,0,0,1-.68-1.14,19.67,19.67,0,0,0-4.4-9.49C32.63,2,24.07,2.47,19.93,7.74a21.55,21.55,0,0,0-4.4,17.1,63.32,63.32,0,0,0,2.39,9,3.69,3.69,0,0,0,3.34,3,3.53,3.53,0,0,1,2.95,3.76A3.83,3.83,0,0,1,21.5,44.5a3.77,3.77,0,0,1-4.56-1.57,10.13,10.13,0,0,1-.63-3.22,8.94,8.94,0,0,0-.38-2.48,31.73,31.73,0,0,1-4-15.87c.23-6.31,1.84-12.2,6.61-16.76A14.7,14.7,0,0,1,27.11.4a5,5,0,0,0,1.1-.4Z"/><path class="cls-1" d="M34.22,54.26c1.76-2.07,3.51-2.33,6-1.58,4.59,1.4,9.09,1,12.72-2.7a10.36,10.36,0,0,0,2.7-11.09,20.21,20.21,0,0,0-9.36-11.38,28.09,28.09,0,0,0-15.11-4.37,2.78,2.78,0,0,0-2.54,1.1,3.67,3.67,0,0,1-4.31,1.17,3.57,3.57,0,0,1-2.62-3.14,3.89,3.89,0,0,1,1.71-4,4,4,0,0,1,4.93.5,3.41,3.41,0,0,0,2.88,1.09c8.25.26,15.6,2.81,21.59,8.67a20.13,20.13,0,0,1,6,10.1c2,9.5-3,15.39-11.47,17.36A19.81,19.81,0,0,1,34.22,54.26Z"/><path class="cls-1" d="M8.52,26.74a7.24,7.24,0,0,0,.22.93c.69,1.58.45,2.67-1,4C4.78,34.4,2.85,37.82,3,42.13a11,11,0,0,0,9.66,10.59c7.46,1,13.55-2,19-6.59,2.2-1.86,3.83-4.39,5.68-6.65a1.68,1.68,0,0,0,.06-2.15,3.91,3.91,0,0,1,1.55-5.61,4.05,4.05,0,1,1,3.4,7.35,4.7,4.7,0,0,0-1.9,1.68c-4.93,9-12.69,13.8-22.61,15.21-4.59.65-9.12-.14-12.83-3.18C.05,48.8-.79,43.45.61,37.67,1.73,33.09,4.58,29.63,8.52,26.74Z"/></svg>