<svg id="Layer_1" data-name="Layer 1" xmlns="http://www.w3.org/2000/svg" viewBox="0 0 66.22 58.09"><defs><style>.cls-1{opacity:0.6;}.cls-2{fill:#fff;}</style></defs><g class="cls-1"><path class="cls-2" d="M7.18,2h51.2c-.09,1.28-.16,2.53-.27,3.78q-.53,5.9-1.09,11.78C56.67,21.25,56.29,25,56,28.73c-.26,2.81-.47,5.62-.73,8.42-.35,3.78-.72,7.55-1.07,11.33C54,49.71,54,51,53.83,52.18a1.38,1.38,0,0,1-.77,1c-6.64,1.54-13.29,3.09-20,4.45-1.13.23-2.43-.34-3.63-.6C24,55.79,18.48,54.54,13,53.36a1.5,1.5,0,0,1-1.38-1.65c-.28-3.89-.7-7.78-1-11.66-.26-2.88-.48-5.77-.74-8.65C9.47,27.7,9.1,24,8.76,20.3,8.5,17.54,8.26,14.77,8,12c-.27-3-.56-6.06-.83-9.09C7.15,2.62,7.18,2.33,7.18,2ZM23.3,18h2.78c6.79,0,13.57,0,20.36,0,.87,0,1.38-.1,1.45-1.17a41.3,41.3,0,0,1,.65-4.11c.23-1.38.23-1.38-1.21-1.38H19.4c-.64,0-1.28,0-1.92,0s-.76.32-.7.85q1,8.1,2,16.19c.11.85.45,1.19,1.38,1.18,4.52-.05,9,0,13.57,0,1.69,0,3.39,0,5.09,0,.58,0,1.08.07,1,.85-.35,2.67-.67,5.36-1.09,8a1.75,1.75,0,0,1-.92,1.08,41.84,41.84,0,0,1-4.18,1.67,2.93,2.93,0,0,1-1.71,0,37,37,0,0,1-4.19-1.68,2.47,2.47,0,0,1-1.1-1.24c-.35-.94-.48-2-.77-2.93-.08-.27-.39-.66-.61-.66-1.86,0-3.72,0-5.73,0,.61,3,1.14,5.7,1.77,8.44.08.36.61.71,1,.88,3.16,1.3,6.34,2.59,9.54,3.8a2.88,2.88,0,0,0,1.9,0c3.06-1.15,6.06-2.46,9.13-3.58a2.08,2.08,0,0,0,1.55-2c0-.75.15-1.49.23-2.24.52-4.66,1.05-9.32,1.56-14,.11-.95.16-1.91.25-3H41.72c-5.39,0-10.78,0-16.17,0-.4,0-1.06-.26-1.15-.54C24,21,23.7,19.63,23.3,18Z"/></g><path class="cls-2" d="M9.18,2h51.2c-.09,1.28-.16,2.53-.27,3.78q-.53,5.9-1.09,11.78C58.67,21.25,58.29,25,58,28.73c-.26,2.81-.47,5.62-.73,8.42-.35,3.78-.72,7.55-1.07,11.33C56,49.71,56,51,55.83,52.18a1.38,1.38,0,0,1-.77,1c-6.64,1.54-13.29,3.09-20,4.45-1.13.23-2.43-.34-3.63-.6C26,55.79,20.48,54.54,15,53.36a1.5,1.5,0,0,1-1.38-1.65c-.28-3.89-.7-7.78-1-11.66-.26-2.88-.48-5.77-.74-8.65-.34-3.7-.71-7.39-1.05-11.1-.26-2.76-.5-5.53-.75-8.3-.27-3-.56-6.06-.83-9.09C9.15,2.62,9.18,2.33,9.18,2ZM25.3,18h2.78c6.79,0,13.57,0,20.36,0,.87,0,1.38-.1,1.45-1.17a41.3,41.3,0,0,1,.65-4.11c.23-1.38.23-1.38-1.21-1.38H21.4c-.64,0-1.28,0-1.92,0s-.76.32-.7.85q1,8.1,2,16.19c.11.85.45,1.19,1.38,1.18,4.52-.05,9,0,13.57,0,1.69,0,3.39,0,5.09,0,.58,0,1.08.07,1,.85-.35,2.67-.67,5.36-1.09,8a1.75,1.75,0,0,1-.92,1.08,41.84,41.84,0,0,1-4.18,1.67,2.93,2.93,0,0,1-1.71,0,37,37,0,0,1-4.19-1.68,2.47,2.47,0,0,1-1.1-1.24c-.35-.94-.48-2-.77-2.93-.08-.27-.39-.66-.61-.66-1.86,0-3.72,0-5.73,0,.61,3,1.14,5.7,1.77,8.44.08.36.61.71,1,.88,3.16,1.3,6.34,2.59,9.54,3.8a2.88,2.88,0,0,0,1.9,0c3.06-1.15,6.06-2.46,9.13-3.58a2.08,2.08,0,0,0,1.55-2c0-.75.15-1.49.23-2.24.52-4.66,1.05-9.32,1.56-14,.11-.95.16-1.91.25-3H43.72c-5.39,0-10.78,0-16.17,0-.4,0-1.06-.26-1.15-.54C26,21,25.7,19.63,25.3,18Z"/></svg>