<svg id="Layer_1" data-name="Layer 1" xmlns="http://www.w3.org/2000/svg" viewBox="0 0 68.22 58.09"><defs><style>.cls-1{opacity:0.6;}.cls-2{fill:#fff;}</style></defs><g class="cls-1"><path class="cls-2" d="M44.58,54.56l-1.37-.12a27.65,27.65,0,0,1-9.59-2.57l-.55-.3,2.14-8.87,1.42.69a24.2,24.2,0,0,0,8.21,2.22A12.69,12.69,0,0,0,50.51,45a4.71,4.71,0,0,0,3.23-3.34A4.57,4.57,0,0,0,52.41,37a11.93,11.93,0,0,0-3.69-2.24c-1.53-.64-3.11-1.21-4.64-1.86a23.06,23.06,0,0,1-6.87-4.26,11.74,11.74,0,0,1-3.88-6.72A12.92,12.92,0,0,1,38.58,8.64a17.81,17.81,0,0,1,8.14-3.26,30.34,30.34,0,0,1,7.85-.15,27.15,27.15,0,0,1,7.78,1.88l.35.15.07.07-2.67,9-1.38-.65a18.71,18.71,0,0,0-8.16-1.76,9.06,9.06,0,0,0-3.87.78,4.25,4.25,0,0,0-2.6,3,4,4,0,0,0,1.49,4.21,13.23,13.23,0,0,0,3.2,1.89c2.06.89,4.15,1.72,6.2,2.64a19.39,19.39,0,0,1,5.81,3.84,12.33,12.33,0,0,1,3.74,8.1c0,.13,0,.27.06.4v2l-.12.89A13.18,13.18,0,0,1,58.94,51a19.55,19.55,0,0,1-9.48,3.37c-.7.08-1.41.13-2.11.19Z"/><path class="cls-2" d="M8.11,54.56c-.66-.06-1.32-.11-2-.19A25.47,25.47,0,0,1,2,53.57c-.31-.09-.44-.18-.38-.56.39-2.72.74-5.45,1.11-8.18a.36.36,0,0,1,0-.11c.8.19,1.6.41,2.4.55a14.54,14.54,0,0,0,4.7.12,5.33,5.33,0,0,0,4.53-3.94,15.39,15.39,0,0,0,.69-4.91q0-14.94,0-29.89V6.21H26.32v.31q0,15,0,30.06a25,25,0,0,1-1.37,8.58A13.15,13.15,0,0,1,14.84,54c-1.28.29-2.6.37-3.91.55l-.31.05Z"/></g><path class="cls-2" d="M46.58,54.56l-1.37-.12a27.65,27.65,0,0,1-9.59-2.57l-.55-.3,2.14-8.87,1.42.69a24.2,24.2,0,0,0,8.21,2.22A12.69,12.69,0,0,0,52.51,45a4.71,4.71,0,0,0,3.23-3.34A4.57,4.57,0,0,0,54.41,37a11.93,11.93,0,0,0-3.69-2.24c-1.53-.64-3.11-1.21-4.64-1.86a23.06,23.06,0,0,1-6.87-4.26,11.74,11.74,0,0,1-3.88-6.72A12.92,12.92,0,0,1,40.58,8.64a17.81,17.81,0,0,1,8.14-3.26,30.34,30.34,0,0,1,7.85-.15,27.15,27.15,0,0,1,7.78,1.88l.35.15.07.07-2.67,9-1.38-.65a18.71,18.71,0,0,0-8.16-1.76,9.06,9.06,0,0,0-3.87.78,4.25,4.25,0,0,0-2.6,3,4,4,0,0,0,1.49,4.21,13.23,13.23,0,0,0,3.2,1.89c2.06.89,4.15,1.72,6.2,2.64a19.39,19.39,0,0,1,5.81,3.84,12.33,12.33,0,0,1,3.74,8.1c0,.13,0,.27.06.4v2l-.12.89A13.18,13.18,0,0,1,60.94,51a19.55,19.55,0,0,1-9.48,3.37c-.7.08-1.41.13-2.11.19Z"/><path class="cls-2" d="M10.11,54.56c-.66-.06-1.32-.11-2-.19A25.47,25.47,0,0,1,4,53.57c-.31-.09-.44-.18-.38-.56.39-2.72.74-5.45,1.11-8.18a.36.36,0,0,1,0-.11c.8.19,1.6.41,2.4.55a14.54,14.54,0,0,0,4.7.12,5.33,5.33,0,0,0,4.53-3.94,15.39,15.39,0,0,0,.69-4.91q0-14.94,0-29.89V6.21H28.32v.31q0,15,0,30.06a25,25,0,0,1-1.37,8.58A13.15,13.15,0,0,1,16.84,54c-1.28.29-2.6.37-3.91.55l-.31.05Z"/></svg>