<svg id="Layer_1" data-name="Layer 1" xmlns="http://www.w3.org/2000/svg" viewBox="0 0 67.22 58.09"><defs><style>.cls-1{opacity:0.6;}.cls-2{fill:#fcf5f2;}</style></defs><g class="cls-1"><path class="cls-2" d="M24.31,18.71,47.24,5.46c.13.16.07.32.07.46q0,12.81,0,25.61a.64.64,0,0,1-.32.67q-7.39,4.24-14.77,8.51a1,1,0,0,1-.18.09.73.73,0,0,1-.37-.14l-4.36-2.51-2.91-1.74c1.58-.92,3.16-1.86,4.75-2.78l10.12-5.84c.18-.11.37-.18.37-.48q0-4.23,0-8.48c-.25-.06-.39.11-.56.21L24.9,27.23a1.22,1.22,0,0,1-.59.27Z"/><path class="cls-2" d="M24.31,18.71V27.5a10.55,10.55,0,0,1-1.78-1L9.4,19,9,18.73v17.6a.59.59,0,0,1-.45-.15c-2.29-1.32-4.57-2.65-6.86-4a.62.62,0,0,1-.38-.63q0-12.93,0-25.86V5.41Z"/><path class="cls-2" d="M39.65,45.29Q47,41,54.45,36.75a.92.92,0,0,0,.54-1c0-2.57,0-5.15,0-7.72a.77.77,0,0,1,.47-.78c2.38-1.36,4.74-2.73,7.11-4.1.17.11.1.26.1.38q0,8.43,0,16.87a.63.63,0,0,1-.37.63L40.1,53.89c-.14.08-.27.22-.46.2C39.64,51.16,39.65,48.23,39.65,45.29Z"/><path class="cls-2" d="M39.65,45.29c0,2.94,0,5.87,0,8.8-.18,0-.31-.12-.45-.2Q32,49.74,24.78,45.58a.82.82,0,0,1-.48-.83c0-2.61,0-5.21,0-7.81,0-.18-.09-.38.1-.53l2.91,1.74,4.36,2.51a.73.73,0,0,0,.37.14c.06.21.26.25.42.34Z"/><path class="cls-2" d="M55,18.69V10.12a.41.41,0,0,1,.22-.41c2.44-1.39,4.87-2.8,7.3-4.2l.1,0c.1.14,0,.29,0,.44,0,2.62,0,5.24,0,7.87a.71.71,0,0,1-.4.72c-2.28,1.29-4.54,2.61-6.81,3.92C55.32,18.52,55.18,18.58,55,18.69Z"/></g><path class="cls-2" d="M26.31,18.71,49.24,5.46c.13.16.07.32.07.46q0,12.81,0,25.61a.64.64,0,0,1-.32.67q-7.39,4.24-14.77,8.51a1,1,0,0,1-.18.09.73.73,0,0,1-.37-.14l-4.36-2.51-2.91-1.74c1.58-.92,3.16-1.86,4.75-2.78l10.12-5.84c.18-.11.37-.18.37-.48q0-4.23,0-8.48c-.25-.06-.39.11-.56.21L26.9,27.23a1.22,1.22,0,0,1-.59.27Z"/><path class="cls-2" d="M26.31,18.71V27.5a10.55,10.55,0,0,1-1.78-1L11.4,19,11,18.73v17.6a.59.59,0,0,1-.45-.15c-2.29-1.32-4.57-2.65-6.86-4a.62.62,0,0,1-.38-.63q0-12.93,0-25.86V5.41Z"/><path class="cls-2" d="M41.65,45.29Q49,41,56.45,36.75a.92.92,0,0,0,.54-1c0-2.57,0-5.15,0-7.72a.77.77,0,0,1,.47-.78c2.38-1.36,4.74-2.73,7.11-4.1.17.11.1.26.1.38q0,8.43,0,16.87a.63.63,0,0,1-.37.63L42.1,53.89c-.14.08-.27.22-.46.2C41.64,51.16,41.65,48.23,41.65,45.29Z"/><path class="cls-2" d="M41.65,45.29c0,2.94,0,5.87,0,8.8-.18,0-.31-.12-.45-.2Q34,49.74,26.78,45.58a.82.82,0,0,1-.48-.83c0-2.61,0-5.21,0-7.81,0-.18-.09-.38.1-.53l2.91,1.74,4.36,2.51a.73.73,0,0,0,.37.14c.06.21.26.25.42.34Z"/><path class="cls-2" d="M57,18.69V10.12a.41.41,0,0,1,.22-.41c2.44-1.39,4.87-2.8,7.3-4.2l.1,0c.1.14.05.29.05.44,0,2.62,0,5.24,0,7.87a.71.71,0,0,1-.4.72c-2.28,1.29-4.54,2.61-6.81,3.92C57.32,18.52,57.18,18.58,57,18.69Z"/></svg>