<svg id="Layer_1" data-name="Layer 1" xmlns="http://www.w3.org/2000/svg" viewBox="0 0 68.22 58.09"><defs><style>.cls-1,.cls-2{fill:#fff;}.cls-1{opacity:0.6;}</style></defs><path class="cls-1" d="M52.73,10.25a35.19,35.19,0,0,1-.88,7.3c-.09.39,0,.52.38.63a31.4,31.4,0,0,1,8.54,4,12.44,12.44,0,0,1,3.16,3,5.83,5.83,0,0,1-.3,7.73,18.4,18.4,0,0,1-6.5,4.68,34.1,34.1,0,0,1-4.85,1.9c-.35.1-.42.24-.34.61a33.81,33.81,0,0,1,.88,8.21,13.87,13.87,0,0,1-1.15,5.53,5.84,5.84,0,0,1-6.9,3.43,19.54,19.54,0,0,1-7.37-3.4,33,33,0,0,1-3.81-3.07c-.33-.3-.51-.28-.83,0a30,30,0,0,1-7.94,5.48,11.19,11.19,0,0,1-4.93,1.15,5.44,5.44,0,0,1-4.84-2.87,11.69,11.69,0,0,1-1.42-4.92,30.29,30.29,0,0,1,.75-9.39c.11-.49,0-.67-.47-.82a30.3,30.3,0,0,1-8.7-4.15,12,12,0,0,1-3-3,5.71,5.71,0,0,1,.18-7.13,15.48,15.48,0,0,1,4.81-4,33.93,33.93,0,0,1,6.76-2.9c.46-.15.52-.35.42-.77a32.68,32.68,0,0,1-.88-7,15.11,15.11,0,0,1,1.19-6.66A5.84,5.84,0,0,1,21.47.38a19.77,19.77,0,0,1,8.07,3.87,35.57,35.57,0,0,1,3,2.45c.57.52.56.53,1.15,0a34.29,34.29,0,0,1,4.53-3.54A17.61,17.61,0,0,1,44.48.38a6,6,0,0,1,5.59,1.27,8,8,0,0,1,2.22,4.28A17.47,17.47,0,0,1,52.73,10.25ZM33.22,18.39a54.86,54.86,0,0,0-5.59.21.87.87,0,0,0-.69.41,74,74,0,0,0-5.43,9.46.86.86,0,0,0,0,.81,77.53,77.53,0,0,0,5,8.77,2.08,2.08,0,0,0,1.82,1.09,75.63,75.63,0,0,0,10.32-.06.69.69,0,0,0,.57-.33,72.67,72.67,0,0,0,5.44-9.46,1,1,0,0,0,0-1A73,73,0,0,0,39.26,19a.77.77,0,0,0-.61-.35C36.84,18.41,35,18.4,33.22,18.39Zm-13,36.11A7.15,7.15,0,0,0,22.64,54a25.73,25.73,0,0,0,8.15-5.39c.22-.2.19-.33,0-.53a64.19,64.19,0,0,1-5-6,.69.69,0,0,0-.55-.27,55.61,55.61,0,0,1-7.35-1.26c-.48-.12-.63,0-.72.46a36.87,36.87,0,0,0-.72,5.53,14.31,14.31,0,0,0,.73,5.77A2.89,2.89,0,0,0,20.17,54.5ZM49.83,10a12.59,12.59,0,0,0-.12-1.9,9.27,9.27,0,0,0-.9-3.35,2.74,2.74,0,0,0-2-1.59,6.09,6.09,0,0,0-3.05.42A25.49,25.49,0,0,0,35.46,9c-.23.2-.18.33,0,.53a65.66,65.66,0,0,1,5,6,.6.6,0,0,0,.45.26,61.41,61.41,0,0,1,7.61,1.3c.36.09.47,0,.53-.33A36.32,36.32,0,0,0,49.83,10ZM62.35,28.75c0-.14-.05-.33-.1-.52a4.26,4.26,0,0,0-1.21-2c-2.71-2.74-6.19-4.08-9.73-5.3-.26-.08-.33.07-.38.25a60.59,60.59,0,0,1-2.65,7.26.83.83,0,0,0,0,.72,59.24,59.24,0,0,1,2.65,7.21c.09.31.2.38.53.27A31.89,31.89,0,0,0,57.54,34a14.42,14.42,0,0,0,3.58-2.72A4,4,0,0,0,62.35,28.75Zm-58.45.1c0,.13.05.32.09.51a5.92,5.92,0,0,0,2.3,3,26.65,26.65,0,0,0,8.56,4.27c.44.14.43-.15.51-.4a58.12,58.12,0,0,1,2.58-7,.94.94,0,0,0,0-.82,58.12,58.12,0,0,1-2.66-7.2c-.11-.35-.24-.35-.53-.26A38.82,38.82,0,0,0,11,22.43a18.15,18.15,0,0,0-5.77,3.78A4.11,4.11,0,0,0,3.9,28.85ZM16.41,10.2a31,31,0,0,0,.77,6.65c.07.32.19.39.52.31a58,58,0,0,1,7.5-1.31.78.78,0,0,0,.63-.34,59.74,59.74,0,0,1,4.93-6c.21-.23.2-.33,0-.54a34.07,34.07,0,0,0-3.25-2.64,15.8,15.8,0,0,0-6.28-3.06c-2.18-.38-3.3,0-4.14,2.29A12.79,12.79,0,0,0,16.41,10.2ZM49.84,47.35a30.12,30.12,0,0,0-.75-6.49c-.09-.42-.24-.46-.61-.37A61.37,61.37,0,0,1,41,41.78a.64.64,0,0,0-.49.26,60.36,60.36,0,0,1-5,6.05c-.2.2-.19.31,0,.51a37,37,0,0,0,3.3,2.67,16,16,0,0,0,6.28,3c1.93.35,3.19.14,4.07-2.16A12.65,12.65,0,0,0,49.84,47.35ZM29.49,15.56a66.44,66.44,0,0,1,7.19,0,3.08,3.08,0,0,0-.24-.36c-.87-1-1.73-2.05-2.62-3.07-.69-.78-.7-.77-1.43,0-.12.13-.25.25-.37.39C31.19,13.44,30.34,14.37,29.49,15.56Zm0,26.53a49.81,49.81,0,0,0,3.45,4c.23.25.37.07.52-.09.58-.66,1.18-1.3,1.75-2a17.47,17.47,0,0,0,1.5-1.93A54.36,54.36,0,0,1,29.5,42.09Zm13.42-3.61c.08,0,.12.07.14.06,1.65-.22,3.28-.55,4.9-.93.31-.07.23-.24.17-.44-.34-1-.65-2-1-3-.2-.58-.43-1.15-.69-1.84C45.32,34.5,44.16,36.51,42.92,38.48ZM23.39,19.05c-1.79.27-3.44.58-5.07,1-.29.07-.28.18-.21.41.31,1.08.67,2.15,1.07,3.21a11,11,0,0,0,.66,1.61C20.93,23.11,22.08,21.12,23.39,19.05Zm19.46,0c1.29,2.05,2.47,4,3.58,6.19.67-1.68,1.21-3.27,1.69-4.88.06-.23,0-.32-.21-.36s-.73-.17-1.1-.25C45.54,19.5,44.26,19.24,42.85,19.06ZM23.4,38.57c-1.24-2-2.38-3.83-3.37-5.77-.05-.11-.13-.21-.22-.37-.59,1.4-1,2.79-1.49,4.19-.29.93-.29.94.67,1.15C20.4,38.09,21.82,38.36,23.4,38.57Z"/><path class="cls-2" d="M54.73,10.25a35.19,35.19,0,0,1-.88,7.3c-.09.39,0,.52.38.63a31.4,31.4,0,0,1,8.54,4,12.44,12.44,0,0,1,3.16,3,5.83,5.83,0,0,1-.3,7.73,18.4,18.4,0,0,1-6.5,4.68,34.1,34.1,0,0,1-4.85,1.9c-.35.1-.42.24-.34.61a33.81,33.81,0,0,1,.88,8.21,13.87,13.87,0,0,1-1.15,5.53,5.84,5.84,0,0,1-6.9,3.43,19.54,19.54,0,0,1-7.37-3.4,33,33,0,0,1-3.81-3.07c-.33-.3-.51-.28-.83,0a30,30,0,0,1-7.94,5.48,11.19,11.19,0,0,1-4.93,1.15,5.44,5.44,0,0,1-4.84-2.87,11.69,11.69,0,0,1-1.42-4.92,30.29,30.29,0,0,1,.75-9.39c.11-.49,0-.67-.47-.82a30.3,30.3,0,0,1-8.7-4.15,12,12,0,0,1-3-3,5.71,5.71,0,0,1,.18-7.13,15.48,15.48,0,0,1,4.81-4,33.93,33.93,0,0,1,6.76-2.9c.46-.15.52-.35.42-.77a32.68,32.68,0,0,1-.88-7,15.11,15.11,0,0,1,1.19-6.66A5.84,5.84,0,0,1,23.47.38a19.77,19.77,0,0,1,8.07,3.87,35.57,35.57,0,0,1,3,2.45c.57.52.56.53,1.15,0a34.29,34.29,0,0,1,4.53-3.54A17.61,17.61,0,0,1,46.48.38a6,6,0,0,1,5.59,1.27,8,8,0,0,1,2.22,4.28A17.47,17.47,0,0,1,54.73,10.25ZM35.22,18.39a54.86,54.86,0,0,0-5.59.21.87.87,0,0,0-.69.41,74,74,0,0,0-5.43,9.46.86.86,0,0,0,0,.81,77.53,77.53,0,0,0,5,8.77,2.08,2.08,0,0,0,1.82,1.09,75.63,75.63,0,0,0,10.32-.06.69.69,0,0,0,.57-.33,72.67,72.67,0,0,0,5.44-9.46,1,1,0,0,0,0-1A73,73,0,0,0,41.26,19a.77.77,0,0,0-.61-.35C38.84,18.41,37,18.4,35.22,18.39Zm-13,36.11A7.15,7.15,0,0,0,24.64,54a25.73,25.73,0,0,0,8.15-5.39c.22-.2.19-.33,0-.53a64.19,64.19,0,0,1-5-6,.69.69,0,0,0-.55-.27,55.61,55.61,0,0,1-7.35-1.26c-.48-.12-.63,0-.72.46a36.87,36.87,0,0,0-.72,5.53,14.31,14.31,0,0,0,.73,5.77A2.89,2.89,0,0,0,22.17,54.5ZM51.83,10a12.59,12.59,0,0,0-.12-1.9,9.27,9.27,0,0,0-.9-3.35,2.74,2.74,0,0,0-2-1.59,6.09,6.09,0,0,0-3.05.42A25.49,25.49,0,0,0,37.46,9c-.23.2-.18.33,0,.53a65.66,65.66,0,0,1,5,6,.6.6,0,0,0,.45.26,61.41,61.41,0,0,1,7.61,1.3c.36.09.47,0,.53-.33A36.32,36.32,0,0,0,51.83,10ZM64.35,28.75c0-.14,0-.33-.1-.52a4.26,4.26,0,0,0-1.21-2c-2.71-2.74-6.19-4.08-9.73-5.3-.26-.08-.33.07-.38.25a60.59,60.59,0,0,1-2.65,7.26.83.83,0,0,0,0,.72,59.24,59.24,0,0,1,2.65,7.21c.09.31.2.38.53.27A31.89,31.89,0,0,0,59.54,34a14.42,14.42,0,0,0,3.58-2.72A4,4,0,0,0,64.35,28.75Zm-58.45.1c0,.13,0,.32.09.51a5.92,5.92,0,0,0,2.3,3,26.65,26.65,0,0,0,8.56,4.27c.44.14.43-.15.51-.4a58.12,58.12,0,0,1,2.58-7,.94.94,0,0,0,0-.82,58.12,58.12,0,0,1-2.66-7.2c-.11-.35-.24-.35-.53-.26A38.82,38.82,0,0,0,13,22.43a18.15,18.15,0,0,0-5.77,3.78A4.11,4.11,0,0,0,5.9,28.85ZM18.41,10.2a31,31,0,0,0,.77,6.65c.07.32.19.39.52.31a58,58,0,0,1,7.5-1.31.78.78,0,0,0,.63-.34,59.74,59.74,0,0,1,4.93-6c.21-.23.2-.33,0-.54a34.07,34.07,0,0,0-3.25-2.64,15.8,15.8,0,0,0-6.28-3.06c-2.18-.38-3.3,0-4.14,2.29A12.79,12.79,0,0,0,18.41,10.2ZM51.84,47.35a30.12,30.12,0,0,0-.75-6.49c-.09-.42-.24-.46-.61-.37A61.37,61.37,0,0,1,43,41.78a.64.64,0,0,0-.49.26,60.36,60.36,0,0,1-5,6.05c-.2.2-.19.31,0,.51a37,37,0,0,0,3.3,2.67,16,16,0,0,0,6.28,3c1.93.35,3.19.14,4.07-2.16A12.65,12.65,0,0,0,51.84,47.35ZM31.49,15.56a66.44,66.44,0,0,1,7.19,0,3.08,3.08,0,0,0-.24-.36c-.87-1-1.73-2.05-2.62-3.07-.69-.78-.7-.77-1.43,0-.12.13-.25.25-.37.39C33.19,13.44,32.34,14.37,31.49,15.56Zm0,26.53a49.81,49.81,0,0,0,3.45,4c.23.25.37.07.52-.09.58-.66,1.18-1.3,1.75-2a17.47,17.47,0,0,0,1.5-1.93A54.36,54.36,0,0,1,31.5,42.09Zm13.42-3.61c.08,0,.12.07.14.06,1.65-.22,3.28-.55,4.9-.93.31-.07.23-.24.17-.44-.34-1-.65-2-1-3-.2-.58-.43-1.15-.69-1.84C47.32,34.5,46.16,36.51,44.92,38.48ZM25.39,19.05c-1.79.27-3.44.58-5.07,1-.29.07-.28.18-.21.41.31,1.08.67,2.15,1.07,3.21a11,11,0,0,0,.66,1.61C22.93,23.11,24.08,21.12,25.39,19.05Zm19.46,0c1.29,2.05,2.47,4,3.58,6.19.67-1.68,1.21-3.27,1.69-4.88.06-.23,0-.32-.21-.36s-.73-.17-1.1-.25C47.54,19.5,46.26,19.24,44.85,19.06ZM25.4,38.57c-1.24-2-2.38-3.83-3.37-5.77-.05-.11-.13-.21-.22-.37-.59,1.4-1,2.79-1.49,4.19-.29.93-.29.94.67,1.15C22.4,38.09,23.82,38.36,25.4,38.57Z"/></svg>