<svg id="Layer_1" data-name="Layer 1" xmlns="http://www.w3.org/2000/svg" viewBox="0 0 61.29 56.45"><defs><style>.cls-1{opacity:0.6;}.cls-2{fill:#fff;}</style></defs><g class="cls-1"><path class="cls-2" d="M29.84.4,32,1c6.16,1.69,9.5,6.1,11.37,11.84a58.91,58.91,0,0,1,1.25,5.78,23.59,23.59,0,0,1-2.92-.9A1.7,1.7,0,0,1,41,16.58,19.45,19.45,0,0,0,36.6,7.17c-4.15-4.78-12.67-4.31-16.78.91a21.34,21.34,0,0,0-4.38,17A64.08,64.08,0,0,0,17.82,34c.48,1.57,1.29,2.8,3.32,3a3.51,3.51,0,0,1,2.94,3.73,3.81,3.81,0,0,1-2.7,3.82A3.77,3.77,0,0,1,16.85,43a10,10,0,0,1-.63-3.19,8.74,8.74,0,0,0-.38-2.46,31.58,31.58,0,0,1-3.95-15.75c.23-6.26,1.83-12.1,6.58-16.62A14.6,14.6,0,0,1,27,.79,4.67,4.67,0,0,0,28.06.4Z"/><path class="cls-2" d="M34,54.23c1.76-2,3.49-2.31,6-1.56,4.56,1.38,9,.94,12.65-2.68a10.25,10.25,0,0,0,2.68-11A20.1,20.1,0,0,0,46,27.69a28,28,0,0,0-15-4.33,2.74,2.74,0,0,0-2.52,1.09,3.66,3.66,0,0,1-4.3,1.16,3.53,3.53,0,0,1-2.59-3.11,3.83,3.83,0,0,1,1.69-4,3.93,3.93,0,0,1,4.91.49A3.39,3.39,0,0,0,31,20.1c8.2.25,15.51,2.78,21.47,8.59a19.94,19.94,0,0,1,6,10c2.05,9.43-3,15.27-11.4,17.23A19.84,19.84,0,0,1,34,54.23Z"/><path class="cls-2" d="M8.47,26.93a8.22,8.22,0,0,0,.22.93c.69,1.56.45,2.64-.95,3.93-3,2.74-4.91,6.13-4.8,10.41a11,11,0,0,0,9.61,10.51c7.42.95,13.48-2,18.86-6.54,2.18-1.85,3.8-4.36,5.64-6.6a1.68,1.68,0,0,0,.07-2.14,3.86,3.86,0,0,1,1.54-5.56A4,4,0,1,1,42,39.16a4.62,4.62,0,0,0-1.89,1.66c-4.91,8.89-12.62,13.69-22.49,15.09A16,16,0,0,1,4.9,52.76C.05,48.81-.79,43.51.61,37.77,1.72,33.23,4.56,29.8,8.47,26.93Z"/></g><path class="cls-2" d="M31.84.4,34,1c6.16,1.69,9.5,6.1,11.37,11.84a58.91,58.91,0,0,1,1.25,5.78,23.59,23.59,0,0,1-2.92-.9A1.7,1.7,0,0,1,43,16.58,19.45,19.45,0,0,0,38.6,7.17c-4.15-4.78-12.67-4.31-16.78.91a21.34,21.34,0,0,0-4.38,17A64.08,64.08,0,0,0,19.82,34c.48,1.57,1.29,2.8,3.32,3a3.51,3.51,0,0,1,2.94,3.73,3.81,3.81,0,0,1-2.7,3.82A3.77,3.77,0,0,1,18.85,43a10,10,0,0,1-.63-3.19,8.74,8.74,0,0,0-.38-2.46,31.58,31.58,0,0,1-3.95-15.75c.23-6.26,1.83-12.1,6.58-16.62A14.6,14.6,0,0,1,29,.79,4.67,4.67,0,0,0,30.06.4Z"/><path class="cls-2" d="M36,54.23c1.76-2,3.49-2.31,6-1.56,4.56,1.38,9,.94,12.65-2.68a10.25,10.25,0,0,0,2.68-11A20.1,20.1,0,0,0,48,27.69a28,28,0,0,0-15-4.33,2.74,2.74,0,0,0-2.52,1.09,3.66,3.66,0,0,1-4.3,1.16,3.53,3.53,0,0,1-2.59-3.11,3.83,3.83,0,0,1,1.69-4,3.93,3.93,0,0,1,4.91.49A3.39,3.39,0,0,0,33,20.1c8.2.25,15.51,2.78,21.47,8.59a19.94,19.94,0,0,1,6,10c2.05,9.43-3,15.27-11.4,17.23A19.84,19.84,0,0,1,36,54.23Z"/><path class="cls-2" d="M10.47,26.93a8.22,8.22,0,0,0,.22.93c.69,1.56.45,2.64-.95,3.93-3,2.74-4.91,6.13-4.8,10.41a11,11,0,0,0,9.61,10.51c7.42.95,13.48-2,18.86-6.54,2.18-1.85,3.8-4.36,5.64-6.6a1.68,1.68,0,0,0,.07-2.14,3.86,3.86,0,0,1,1.54-5.56A4,4,0,1,1,44,39.16a4.62,4.62,0,0,0-1.89,1.66c-4.91,8.89-12.62,13.69-22.49,15.09A16,16,0,0,1,6.9,52.76c-4.85-3.95-5.69-9.25-4.29-15C3.72,33.23,6.56,29.8,10.47,26.93Z"/></svg>