<svg id="Layer_1" data-name="Layer 1" xmlns="http://www.w3.org/2000/svg" viewBox="0 0 300 180.59"><defs><style>.cls-1{fill:#fff;}.cls-2{opacity:0.85;}.cls-3{fill:#29abe2;}.cls-4{opacity:0.24;}</style></defs><path class="cls-1" d="M98,38a27.64,27.64,0,0,1-.72,5.87c-.08.32,0,.42.31.51a26.24,26.24,0,0,1,7,3.21,10.22,10.22,0,0,1,2.6,2.39,4.63,4.63,0,0,1-.24,6.23,15.28,15.28,0,0,1-5.36,3.76,29.71,29.71,0,0,1-4,1.53c-.29.08-.35.19-.28.49a26.19,26.19,0,0,1,.72,6.6,10.77,10.77,0,0,1-1,4.46,4.86,4.86,0,0,1-5.68,2.76A16.5,16.5,0,0,1,85.37,73a28.91,28.91,0,0,1-3.14-2.47c-.27-.24-.42-.23-.68,0A24.88,24.88,0,0,1,75,75a9.37,9.37,0,0,1-4.07.93,4.5,4.5,0,0,1-4-2.31,9.23,9.23,0,0,1-1.17-4,23.7,23.7,0,0,1,.62-7.55c.09-.4,0-.54-.39-.66a25.1,25.1,0,0,1-7.17-3.34,9.63,9.63,0,0,1-2.51-2.42,4.51,4.51,0,0,1,.15-5.74,12.65,12.65,0,0,1,4-3.22A27.79,27.79,0,0,1,66,44.38c.38-.12.43-.28.35-.62a25.74,25.74,0,0,1-.73-5.65,11.92,11.92,0,0,1,1-5.36A4.83,4.83,0,0,1,72.24,30a16.58,16.58,0,0,1,6.66,3.11,29.32,29.32,0,0,1,2.47,2c.47.41.46.42.95,0a28,28,0,0,1,3.73-2.84A14.75,14.75,0,0,1,91.21,30a5.08,5.08,0,0,1,4.61,1,6.5,6.5,0,0,1,1.83,3.45A13.51,13.51,0,0,1,98,38ZM81.93,44.52c-1.54,0-3.08,0-4.61.17a.73.73,0,0,0-.57.33,59.22,59.22,0,0,0-4.47,7.61.66.66,0,0,0,0,.65,61.66,61.66,0,0,0,4.13,7.06,1.73,1.73,0,0,0,1.5.87,65.31,65.31,0,0,0,8.51,0,.59.59,0,0,0,.47-.27,58.15,58.15,0,0,0,4.48-7.61.83.83,0,0,0,0-.81A59.94,59.94,0,0,0,86.91,45a.61.61,0,0,0-.51-.28A44.53,44.53,0,0,0,81.93,44.52Zm-10.76,29a5.82,5.82,0,0,0,2-.4,21.23,21.23,0,0,0,6.73-4.33c.18-.16.15-.27,0-.43a51.6,51.6,0,0,1-4.12-4.86.62.62,0,0,0-.46-.22,44.15,44.15,0,0,1-6-1c-.4-.1-.52,0-.6.37a29,29,0,0,0-.6,4.45,11.43,11.43,0,0,0,.6,4.64A2.39,2.39,0,0,0,71.17,73.57ZM95.62,37.79a9,9,0,0,0-.1-1.54,7.25,7.25,0,0,0-.74-2.69,2.25,2.25,0,0,0-1.68-1.28,5.14,5.14,0,0,0-2.52.34A21.15,21.15,0,0,0,83.77,37c-.18.16-.14.26,0,.42a53.25,53.25,0,0,1,4.13,4.86.46.46,0,0,0,.36.2,53.08,53.08,0,0,1,6.28,1c.3.07.39,0,.44-.27A28.36,28.36,0,0,0,95.62,37.79Zm10.32,15.06c0-.11,0-.26-.08-.42a3.49,3.49,0,0,0-1-1.61c-2.24-2.2-5.1-3.28-8-4.26-.22-.07-.27.06-.31.2a49,49,0,0,1-2.19,5.85.67.67,0,0,0,0,.57A48.92,48.92,0,0,1,96.54,59c.07.25.16.31.43.22a27.47,27.47,0,0,0,5-2.09,12,12,0,0,0,3-2.19A3.22,3.22,0,0,0,105.94,52.85Zm-48.18.08c0,.11,0,.26.08.42a4.71,4.71,0,0,0,1.89,2.44,22,22,0,0,0,7.06,3.43c.36.12.35-.12.42-.32a45.46,45.46,0,0,1,2.12-5.63.7.7,0,0,0,0-.66,46.5,46.5,0,0,1-2.19-5.79c-.09-.28-.2-.29-.43-.21-1,.35-2.1.71-3.11,1.16a14.84,14.84,0,0,0-4.75,3A3.28,3.28,0,0,0,57.76,52.93Zm10.31-15a24.15,24.15,0,0,0,.64,5.35c.05.26.15.31.43.25a47.76,47.76,0,0,1,6.18-1.05.7.7,0,0,0,.52-.27,46.41,46.41,0,0,1,4.06-4.8c.18-.19.16-.27,0-.44a30.53,30.53,0,0,0-2.68-2.13A13.17,13.17,0,0,0,72,32.39c-1.79-.31-2.71,0-3.41,1.84A9.89,9.89,0,0,0,68.07,37.93ZM95.63,67.82A23.66,23.66,0,0,0,95,62.59c-.07-.33-.19-.37-.5-.29a51.89,51.89,0,0,1-6.19,1,.52.52,0,0,0-.41.22,48.77,48.77,0,0,1-4.12,4.86c-.16.17-.16.25,0,.41A31.31,31.31,0,0,0,86.53,71a13.21,13.21,0,0,0,5.19,2.45c1.58.28,2.62.11,3.35-1.73A10,10,0,0,0,95.63,67.82ZM78.86,42.24a58.54,58.54,0,0,1,5.92,0,2.18,2.18,0,0,0-.2-.29c-.71-.82-1.43-1.65-2.16-2.47-.56-.63-.57-.62-1.18,0l-.3.31C80.26,40.54,79.55,41.29,78.86,42.24Zm0,21.34c1,1.19,1.87,2.23,2.84,3.22.2.19.31,0,.43-.08.48-.53,1-1,1.44-1.58a14.5,14.5,0,0,0,1.24-1.55A45.45,45.45,0,0,1,78.86,63.58Zm11.06-2.9.12,0c1.36-.18,2.7-.45,4-.75.25-.06.19-.19.14-.35-.28-.81-.54-1.62-.82-2.42-.17-.47-.36-.93-.58-1.48C91.9,57.48,91,59.1,89.92,60.68ZM73.83,45.05c-1.48.22-2.84.47-4.19.77-.23.06-.23.14-.17.33.26.87.56,1.73.88,2.58A8.26,8.26,0,0,0,70.9,50C71.8,48.32,72.75,46.71,73.83,45.05Zm16,0c1.06,1.65,2,3.26,2.95,5,.55-1.36,1-2.63,1.39-3.93.05-.18,0-.26-.18-.29s-.6-.14-.9-.2C92.08,45.41,91,45.2,89.87,45.05Zm-16,15.71c-1-1.59-2-3.09-2.77-4.65,0-.09-.11-.17-.19-.3-.48,1.13-.86,2.25-1.22,3.37-.24.75-.24.76.55.93C71.36,60.36,72.53,60.58,73.83,60.76Z"/><path class="cls-1" d="M150.54,29.88l1.73.47c5,1.35,7.75,4.88,9.28,9.46a45.69,45.69,0,0,1,1,4.61,18.45,18.45,0,0,1-2.38-.71,1.37,1.37,0,0,1-.56-.9,15.34,15.34,0,0,0-3.57-7.52c-3.38-3.82-10.34-3.45-13.69.72a16.76,16.76,0,0,0-3.58,13.56,48.55,48.55,0,0,0,1.94,7.13,3,3,0,0,0,2.71,2.41,2.82,2.82,0,0,1,2.4,3,3,3,0,0,1-2.2,3.06,3.1,3.1,0,0,1-3.7-1.25,7.82,7.82,0,0,1-.52-2.55,6.44,6.44,0,0,0-.31-2,24.86,24.86,0,0,1-3.22-12.58c.19-5,1.5-9.67,5.37-13.28a12.08,12.08,0,0,1,6.93-3.34,3.84,3.84,0,0,0,.9-.31Z"/><path class="cls-1" d="M154,72.88c1.43-1.64,2.85-1.85,4.86-1.25,3.73,1.11,7.38.75,10.33-2.14a8.09,8.09,0,0,0,2.19-8.79,16.16,16.16,0,0,0-7.6-9,23.17,23.17,0,0,0-12.27-3.46,2.28,2.28,0,0,0-2.06.87,3,3,0,0,1-3.5.93,2.84,2.84,0,0,1-2.12-2.49,3,3,0,0,1,1.38-3.18,3.29,3.29,0,0,1,4,.39,2.76,2.76,0,0,0,2.34.87c6.69.2,12.66,2.23,17.52,6.87a15.81,15.81,0,0,1,4.9,8c1.67,7.53-2.42,12.2-9.31,13.77A16.52,16.52,0,0,1,154,72.88Z"/><path class="cls-1" d="M133.1,51.07a4,4,0,0,0,.18.74A2.37,2.37,0,0,1,132.5,55a10.55,10.55,0,0,0-3.92,8.32,8.84,8.84,0,0,0,7.85,8.39c6,.76,11-1.58,15.39-5.22a38.77,38.77,0,0,0,4.61-5.27,1.31,1.31,0,0,0,0-1.71A3.06,3.06,0,0,1,157.74,55a3.34,3.34,0,0,1,4.44,1.38,3.2,3.2,0,0,1-1.68,4.44A3.84,3.84,0,0,0,159,62.17c-4,7.1-10.3,10.94-18.36,12a13.32,13.32,0,0,1-10.42-2.51c-4-3.16-4.64-7.39-3.5-12C127.58,56.1,129.9,53.36,133.1,51.07Z"/><path class="cls-1" d="M128,100.64h41.57c-.07,1-.12,2-.21,3q-.44,4.67-.88,9.33c-.29,3-.6,5.93-.88,8.89-.21,2.22-.38,4.45-.59,6.67-.28,3-.58,6-.87,9-.09,1-.11,2-.26,2.93a1.09,1.09,0,0,1-.62.77c-5.4,1.22-10.79,2.44-16.22,3.53a8,8,0,0,1-2.94-.48c-4.46-1-8.92-1.95-13.38-2.88a1.2,1.2,0,0,1-1.13-1.31c-.23-3.09-.57-6.16-.85-9.24-.21-2.29-.39-4.57-.6-6.85-.27-2.94-.58-5.87-.86-8.8l-.6-6.58q-.33-3.6-.68-7.2C128,101.17,128,100.94,128,100.64Zm13.1,12.7h2.26c5.5,0,11,0,16.52,0,.71,0,1.12-.08,1.18-.93a30.13,30.13,0,0,1,.53-3.25c.19-1.1.19-1.1-1-1.1H137.9c-.52,0-1,0-1.56,0s-.62.25-.57.68c.55,4.27,1.11,8.55,1.64,12.82.09.68.37,1,1.12.94,3.67,0,7.34,0,11,0h4.13c.47,0,.88.06.8.68-.28,2.12-.54,4.24-.88,6.36a1.42,1.42,0,0,1-.75.85c-1.11.49-2.24.94-3.4,1.32a2.44,2.44,0,0,1-1.39,0,31.93,31.93,0,0,1-3.4-1.33,1.93,1.93,0,0,1-.89-1c-.29-.75-.39-1.56-.63-2.33-.06-.21-.32-.52-.49-.52-1.51,0-3,0-4.65,0,.49,2.33.92,4.52,1.43,6.69.07.28.5.56.82.69,2.57,1,5.15,2.06,7.75,3a2.42,2.42,0,0,0,1.55,0c2.48-.91,4.91-1.95,7.41-2.84a1.63,1.63,0,0,0,1.25-1.6c0-.59.12-1.18.19-1.77q.63-5.54,1.27-11.08c.08-.76.13-1.52.2-2.39H156c-4.38,0-8.75,0-13.13,0-.32,0-.86-.2-.93-.43C141.61,115.73,141.39,114.65,141.07,113.34Z"/><path class="cls-1" d="M87.26,139.88l-1.11-.1a22.84,22.84,0,0,1-7.79-2c-.15-.07-.29-.16-.45-.24l1.74-7c.39.18.77.37,1.16.54a19.9,19.9,0,0,0,6.65,1.75,10.57,10.57,0,0,0,4.61-.44,3.81,3.81,0,0,0,2.63-2.65A3.57,3.57,0,0,0,93.61,126a9.73,9.73,0,0,0-3-1.78c-1.25-.51-2.52-1-3.77-1.47a18.81,18.81,0,0,1-5.58-3.38A9.3,9.3,0,0,1,78.12,114a10.12,10.12,0,0,1,4.26-10.52A14.81,14.81,0,0,1,89,100.9a25.7,25.7,0,0,1,6.38-.11,22.34,22.34,0,0,1,6.31,1.49l.29.12.06,0-2.18,7.1c-.38-.18-.74-.36-1.11-.52a15.56,15.56,0,0,0-6.62-1.4,7.54,7.54,0,0,0-3.15.62,3.39,3.39,0,0,0-2.11,2.34,3.15,3.15,0,0,0,1.21,3.34,10.64,10.64,0,0,0,2.6,1.49c1.67.71,3.36,1.37,5,2.1a15.78,15.78,0,0,1,4.72,3,9.65,9.65,0,0,1,3,6.42c0,.1,0,.21,0,.32v1.58l-.09.7a10.43,10.43,0,0,1-4.49,7.48,16.06,16.06,0,0,1-7.7,2.67l-1.71.15Z"/><path class="cls-1" d="M57.65,139.88,56,139.73a20.24,20.24,0,0,1-3.37-.64c-.25-.07-.36-.14-.31-.44.31-2.16.6-4.32.9-6.48,0,0,0-.06,0-.09.66.15,1.3.32,2,.43a11.88,11.88,0,0,0,3.81.1,4.29,4.29,0,0,0,3.68-3.12,11.94,11.94,0,0,0,.56-3.89q0-11.84,0-23.69v-.35h9.14v.25q0,11.91,0,23.82a19.22,19.22,0,0,1-1.11,6.8,10.62,10.62,0,0,1-8.2,7c-1,.22-2.11.29-3.17.43l-.26,0Z"/><path class="cls-1" d="M199.83,100.64h39.5c-.11,1.26-.23,2.52-.34,3.77q-.75,8.22-1.48,16.44c-.57,6.19-1.15,12.38-1.68,18.58a1,1,0,0,1-.9,1.11c-4.9,1.31-9.78,2.66-14.67,4a2.81,2.81,0,0,1-1.44,0c-4.33-1.15-8.64-2.35-13-3.53-2.51-.69-2.46-.69-2.68-3.23-.52-6.14-1.09-12.28-1.64-18.41Zm8.8,25.14c.23,2.42.47,4.76.66,7.1,0,.53.26.71.76.84,3,.78,5.94,1.6,8.91,2.38a2.6,2.6,0,0,0,1.27,0c2.73-.7,5.44-1.45,8.15-2.18,1.48-.4,1.46-.4,1.59-1.91.57-6.31,1.16-12.62,1.73-18.93.13-1.42.25-2.83.37-4.28h-25l.35,4.58h19.26l-.37,5H207.89l.51,4.71h17.5c-.23,2.12-.44,4.14-.71,6.16a1,1,0,0,1-.59.66c-1.52.45-3,.84-4.58,1.22a1.87,1.87,0,0,1-.94,0c-1.48-.37-2.94-.8-4.43-1.15-.54-.12-.68-.38-.71-.88-.07-1.08-.19-2.16-.3-3.28Z"/><path class="cls-1" d="M211.76,41.56l20.62-11.64a.53.53,0,0,1,.07.41q0,11.24,0,22.48a.56.56,0,0,1-.29.59q-6.64,3.74-13.28,7.48l-.17.07a.63.63,0,0,1-.33-.12c-1.31-.74-2.62-1.46-3.92-2.2-.88-.5-1.75-1-2.63-1.53l4.28-2.44,9.1-5.13c.17-.09.34-.16.34-.42q0-3.72,0-7.45c-.22,0-.35.1-.5.19L212.28,49a1.08,1.08,0,0,1-.53.24Z"/><path class="cls-1" d="M211.76,41.56v7.72a10.65,10.65,0,0,1-1.6-.85l-11.81-6.66-.37-.2V57c-.19,0-.29-.07-.4-.14l-6.17-3.47a.55.55,0,0,1-.35-.55q0-11.35,0-22.71v-.28Z"/><path class="cls-1" d="M225.55,64.9q6.66-3.75,13.33-7.5a.82.82,0,0,0,.48-.84c0-2.25,0-4.51,0-6.77a.67.67,0,0,1,.42-.69c2.14-1.19,4.27-2.4,6.4-3.6.15.1.09.23.09.34q0,7.39,0,14.81a.55.55,0,0,1-.33.55L226,72.45c-.12.07-.24.19-.41.17Z"/><path class="cls-1" d="M225.55,64.9v7.72c-.17,0-.28-.1-.41-.17l-13-7.3a.73.73,0,0,1-.44-.73c0-2.28,0-4.57,0-6.86,0-.15-.08-.33.08-.46.88.51,1.75,1,2.63,1.53,1.3.74,2.61,1.46,3.92,2.2a.63.63,0,0,0,.33.12c.05.19.24.22.37.3Z"/><path class="cls-1" d="M239.35,41.54V34a.36.36,0,0,1,.2-.36L246.11,30s.06,0,.1,0,0,.26,0,.38c0,2.31,0,4.61,0,6.92a.63.63,0,0,1-.36.63c-2.05,1.13-4.09,2.29-6.13,3.44Z"/><g class="cls-2"><path class="cls-3" d="M6.15,87q16.47-2.36,18.21-26.68l2.18-30.47q1.13-15.7,8.4-22.52T55.6,0L55,8.62q-8.65.51-13.06,5.44T36.53,32.83l-2,28.32Q32.78,85.27,17.09,90l0,.41q15,4.6,13.39,27.29L28.3,147.75q-1,13.86,2.7,18.78T43.28,172l-.62,8.62q-13.32-.53-19.61-7.34t-5.17-22.52l2.31-32.22Q21.83,95.83,5.68,93.58Z"/></g><g class="cls-4"><path class="cls-3" d="M.47,87q16.47-2.36,18.21-26.68l2.18-30.47Q22,14.16,29.26,7.34T49.91,0L49.3,8.62q-8.65.51-13.06,5.44T30.85,32.83l-2,28.32Q27.1,85.27,11.4,90l0,.41q15,4.6,13.4,27.29l-2.16,30.06q-1,13.86,2.7,18.78T37.59,172L37,180.59q-13.32-.53-19.61-7.34T12.2,150.73l2.31-32.22Q16.13,95.83,0,93.58Z"/></g><g class="cls-2"><path class="cls-3" d="M299.53,93.58q-16.47,2.36-18.21,26.68l-2.18,30.47q-1.12,15.71-8.4,22.52t-20.65,7.34l.61-8.62q8.66-.51,13.06-5.44t5.39-18.78l2-28.32Q272.9,95.32,288.6,90.6l0-.41q-15-4.62-13.4-27.29l2.16-30.07q1-13.84-2.7-18.77T262.41,8.62L263,0q13.32.51,19.61,7.34t5.17,22.52l-2.31,32.22Q283.87,84.76,300,87Z"/></g><g class="cls-4"><path class="cls-3" d="M293,93.58q-16.45,2.36-18.2,26.68l-2.19,30.47q-1.12,15.71-8.39,22.52t-20.66,7.34l.62-8.62q8.65-.51,13.06-5.44t5.39-18.78l2-28.32q1.72-24.11,17.41-28.83l0-.41q-15-4.62-13.39-27.29l2.15-30.07q1-13.84-2.7-18.77T255.91,8.62L256.53,0q13.31.51,19.61,7.34t5.16,22.52L279,62.08Q277.37,84.76,293.5,87Z"/></g></svg>