<svg id="Layer_1" data-name="Layer 1" xmlns="http://www.w3.org/2000/svg" xmlns:xlink="http://www.w3.org/1999/xlink" viewBox="0 0 1900 391"><defs><style>.cls-1{fill:#ccc;}.cls-2{fill:#29abe2;}.cls-3{fill:url(#linear-gradient);}</style><linearGradient id="linear-gradient" x1="-152.21" y1="2042.25" x2="884" y2="2042.25" gradientTransform="translate(884 2258.53) rotate(180)" gradientUnits="userSpaceOnUse"><stop offset="0" stop-color="#29abe2"/><stop offset="0.27" stop-color="#29abe2" stop-opacity="0.78"/><stop offset="0.87" stop-color="#29abe2" stop-opacity="0.22"/><stop offset="1" stop-color="#29abe2" stop-opacity="0.1"/></linearGradient></defs><path class="cls-1" d="M1574.11,175.75c1.34-11.87,4.66-23.81,8-35.75s6.59-23.46,7.93-35.33c6.58-58.16-61.36-51.88-96.45-52.26-1.76,0-26.11-.84-26.19-.28l0-.24h-66.09q-21.68,0-35.1,7.75t-15.38,25.63s-14.18,168.57-14.24,168.15L1311.16,52.17a.38.38,0,0,0-.4-.28H1245a.49.49,0,0,0-.46.28l-105.09,279c-.08.22.1.43.38.43h44.72l-.06.22h91.14c-9.18-1.88-16-7.93-17.21-15.86l-.63-50.43h-31l.41-1.49s6.46-24.15,6.5-24.15l12.08-43.55h-.09l25.67-92.91c.06-.16,10.67,172.7,10.67,172.7l2.38,39c1.44,9.6,11.18,16.48,23.32,16.48H1315l0,.22h105.39l0-.22h16.32l0,.22h17.45c16.64,0,31.32-10.9,32.78-24.36l3-27.9h-47.59l0,.39h-47.58c-.24,0-.42-.16-.4-.35l19-175.69c0-.19.41-.11.46-.36,3.71-18.55,22.25-19.29,36.8-19.48,25.66-.33,51.32,0,77-.38,17.88-.23,30.26,5.27,27.85,26.58-1.1,9.74-4.22,20-6.86,30.22-3.17,10.67-6.3,20.92-7.59,32.36-3.06,27.12,9.25,40.13,30.44,44.35l-.1.85c-22.28,5.52-37.75,20.48-40.82,47.6-1.29,11.43-.51,21.95.32,32,.29,10.53,1.17,20.2,0,30.37-2.68,23.73-16,36.91-43.73,38.43l-8.4.33,0,.43H1145.22l.08-.43-8.31-.33c-27.3-1.52-36.72-14.7-32.4-38.43,1.84-10.17,5.57-19.84,9-30.37,3.81-10.09,7.69-20.61,9.77-32.05,4.93-27.12-6.14-42.08-26.8-47.59l.15-.85c22.43-4.23,38.58-17.24,43.51-44.36,2.08-11.44,2-21.69,2-32.36.38-10.23.27-20.47,2-30.22,4.16-22.88,16.81-35.61,45.24-34.9l8.8.35.07-.35h21.24l7.65-23.46-24.72.51-9.78-.39c-41.55-1.67-74.37,13.67-81.45,52.65-2.16,11.87-2.28,23.39-2.48,35.33s-.41,23.88-2.56,35.75c-2.7,14.83-10.59,31.16-45.29,29.77L1057,227.12c34.7,1.39,36.28,19.81,33.89,32.94-2.08,11.44-6.11,22.81-10.15,34.17s-8.14,23.15-10.23,34.59c-7.47,41.11,18.1,57.94,55.66,60.62l350.5,1.2.08-.55,9.73-.39c40.55-1.6,73.43-18.08,78.26-60.88,1.29-11.44.66-23.22,0-34.59s-1.37-22.72-.08-34.16c1.48-13.14,8.48-31.55,43.6-32.94l2.44-21.61C1575.51,206.91,1572.44,190.58,1574.11,175.75Z"/><path class="cls-2" d="M1548.12,175.75c1.34-11.87,4.66-23.81,8-35.75s6.59-23.46,7.93-35.33c6.58-58.16-61.36-51.88-96.45-52.26-1.76,0-26.11-.84-26.19-.28l0-.24h-66.1q-21.66,0-35.1,7.75t-15.37,25.63s-14.18,168.57-14.24,168.15L1285.17,52.17a.38.38,0,0,0-.4-.28H1219a.49.49,0,0,0-.46.28l-105.09,279c-.09.22.1.43.38.43h44.72l-.06.22h91.14c-9.18-1.88-16-7.93-17.22-15.86l-.63-50.43h-31l.42-1.49s6.45-24.15,6.5-24.15l12.08-43.55h-.09l25.67-92.91c.06-.16,10.67,172.7,10.67,172.7,1.41,23.09,2.37,39,2.37,39,1.45,9.6,11.18,16.48,23.33,16.48H1289l0,.22h105.4l0-.22h16.32l0,.22h17.44c16.65,0,31.33-10.9,32.79-24.36l3-27.9h-47.59l0,.39H1368.7c-.25,0-.42-.16-.4-.35l19-175.69c0-.19.41-.11.46-.36,3.71-18.55,22.25-19.29,36.8-19.48,25.66-.33,51.32,0,77-.38,17.89-.23,30.27,5.27,27.86,26.58-1.1,9.74-4.22,20-6.86,30.22-3.17,10.67-6.3,20.92-7.59,32.36-3.06,27.12,9.25,40.13,30.44,44.35l-.1.85c-22.28,5.52-37.76,20.48-40.82,47.6-1.29,11.43-.51,21.95.32,32,.29,10.53,1.17,20.2,0,30.37-2.68,23.73-16,36.91-43.73,38.43l-8.41.33,0,.43H1119.23l.08-.43-8.32-.33c-27.29-1.52-36.71-14.7-32.4-38.43,1.85-10.17,5.58-19.84,9-30.37,3.81-10.09,7.68-20.61,9.77-32.05,4.92-27.12-6.15-42.08-26.8-47.59l.15-.85c22.43-4.23,38.58-17.24,43.51-44.36,2.08-11.44,2-21.69,1.94-32.36.39-10.23.28-20.47,2-30.22,4.16-22.88,16.81-35.61,45.24-34.9l8.8.35.06-.35h21.24l7.66-23.46-24.73.51-9.77-.39c-41.55-1.67-74.37,13.67-81.45,52.65-2.16,11.87-2.28,23.39-2.49,35.33s-.4,23.88-2.55,35.75c-2.7,14.83-10.59,31.16-45.29,29.77L1031,227.12c34.7,1.39,36.28,19.81,33.89,32.94-2.08,11.44-6.11,22.81-10.15,34.17s-8.15,23.15-10.23,34.59c-7.47,41.11,20,57.94,57.58,60.62l348.57,1.2.08-.55,9.74-.39c40.55-1.6,73.43-18.08,78.26-60.88,1.29-11.44.65-23.22,0-34.59s-1.37-22.72-.08-34.16c1.48-13.14,8.48-31.55,43.59-32.94l2.44-21.61C1549.52,206.91,1546.44,190.58,1548.12,175.75Z"/><polygon class="cls-1" points="1900 229.9 1603.69 227.21 1603.69 205.54 1900 205.54 1900 229.9"/><polygon class="cls-3" points="1036.21 227 0 227 0 205.89 1036.21 205.54 1036.21 227"/></svg>