<svg id="Layer_1" data-name="Layer 1" xmlns="http://www.w3.org/2000/svg" xmlns:xlink="http://www.w3.org/1999/xlink" viewBox="0 0 1917 391"><defs><style>.cls-1{fill:#ccc;}.cls-2{fill:#29abe2;}.cls-3{fill:url(#linear-gradient);}</style><linearGradient id="linear-gradient" x1="-5770" y1="-1249.08" x2="-4849.52" y2="-1249.08" gradientTransform="translate(-4850 -1059.47) rotate(180)" gradientUnits="userSpaceOnUse"><stop offset="0" stop-color="#29abe2"/><stop offset="0.27" stop-color="#29abe2" stop-opacity="0.78"/><stop offset="0.87" stop-color="#29abe2" stop-opacity="0.22"/><stop offset="1" stop-color="#29abe2" stop-opacity="0.1"/></linearGradient></defs><path class="cls-1" d="M1540.56,142.78c1.55-13.71,5.38-27.51,9.21-41.3s7.61-27.1,9.16-40.8C1566.53-6.51,1488.05.74,1447.51.31c-2,0-30.16-1-30.24-.33l0-.27H1341q-25,0-40.54,9t-17.76,29.6S1266.27,233,1266.2,232.5L1236.82,0a.43.43,0,0,0-.46-.32h-76a.56.56,0,0,0-.53.32L1038.43,322.3c-.09.25.12.49.45.49h51.65l-.07.26h105.28c-10.6-2.17-18.51-9.17-19.89-18.33l-.73-58.25h-35.77l.48-1.72s7.46-27.9,7.51-27.9l14-50.31h-.11l29.65-107.31c.07-.18,12.32,199.49,12.32,199.49,1.63,26.66,2.75,45,2.75,45,1.67,11.1,12.91,19,26.94,19h8.35l0,.26h121.75l0-.26h18.86l0,.26h20.15c19.23,0,36.19-12.6,37.87-28.14l3.49-32.23h-55l0,.45h-55c-.28,0-.49-.18-.46-.41l22-202.94c0-.22.47-.13.53-.41,4.29-21.43,25.71-22.29,42.51-22.5,29.64-.39,59.28-.06,88.92-.44,20.66-.27,35,6.09,32.18,30.7-1.27,11.25-4.88,23.09-7.92,34.91-3.67,12.32-7.28,24.16-8.77,37.37-3.54,31.33,10.69,46.36,35.16,51.24l-.11,1c-25.74,6.37-43.62,23.65-47.15,55-1.5,13.22-.59,25.36.36,37,.34,12.17,1.35,23.34,0,35.08-3.1,27.41-18.47,42.64-50.52,44.39l-9.7.38-.06.5H1045.14l.09-.5-9.6-.38c-31.52-1.75-42.4-17-37.42-44.39,2.13-11.75,6.44-22.91,10.35-35.08,4.4-11.66,8.88-23.81,11.28-37,5.7-31.33-7.09-48.6-31-55l.18-1c25.91-4.88,44.56-19.91,50.26-51.24,2.4-13.21,2.28-25.05,2.24-37.38.44-11.81.32-23.65,2.37-34.9,4.8-26.44,19.42-41.14,52.25-40.32l10.17.41.07-.41H1131l8.85-27.09-28.56.58L1100-.16c-48-1.92-85.9,15.79-94.08,60.82-2.49,13.71-2.63,27-2.87,40.81s-.46,27.59-3,41.29c-3.12,17.14-12.23,36-52.32,34.39l-4.53,25c40.08,1.6,41.9,22.87,39.14,38-2.4,13.21-7.06,26.34-11.72,39.46s-9.41,26.74-11.81,40c-8.63,47.49,20.9,66.92,64.28,70L1428,391l.1-.64,11.24-.44c46.84-1.86,84.82-20.9,90.4-70.33,1.5-13.22.76-26.83,0-39.95s-1.58-26.25-.09-39.47c1.72-15.17,9.8-36.44,50.36-38l2.82-25C1542.18,178.76,1538.63,159.9,1540.56,142.78Z"/><path class="cls-2" d="M1510.54,142.78c1.55-13.71,5.38-27.51,9.21-41.3s7.61-27.1,9.16-40.8C1536.51-6.51,1458,.74,1417.49.31c-2,0-30.16-1-30.24-.33l0-.27h-76.35q-25,0-40.54,9t-17.76,29.6S1236.25,233,1236.17,232.5L1206.8,0a.43.43,0,0,0-.46-.32h-76a.56.56,0,0,0-.53.32L1008.41,322.3c-.1.25.12.49.44.49h51.66l-.07.26h105.28c-10.61-2.17-18.51-9.17-19.89-18.33l-.73-58.25h-35.77l.47-1.72s7.46-27.9,7.51-27.9l14-50.31h-.11l29.66-107.31c.07-.18,12.32,199.49,12.32,199.49,1.63,26.66,2.74,45,2.74,45,1.67,11.1,12.92,19,26.94,19h8.36l0,.26H1332.9l0-.26h18.86l0,.26h20.15c19.23,0,36.18-12.6,37.87-28.14l3.49-32.23h-55l0,.45h-55c-.28,0-.49-.18-.47-.41l22-202.94c0-.22.47-.13.53-.41,4.28-21.43,25.7-22.29,42.5-22.5,29.64-.39,59.29-.06,88.93-.44,20.66-.27,35,6.09,32.18,30.7-1.27,11.25-4.88,23.09-7.92,34.91-3.67,12.32-7.28,24.16-8.77,37.37-3.54,31.33,10.69,46.36,35.16,51.24l-.12,1c-25.74,6.37-43.61,23.65-47.15,55-1.49,13.22-.58,25.36.37,37,.34,12.17,1.35,23.34,0,35.08-3.09,27.41-18.46,42.64-50.51,44.39l-9.71.38,0,.5H1015.12l.09-.5-9.6-.38c-31.52-1.75-42.41-17-37.43-44.39,2.14-11.75,6.45-22.91,10.36-35.08,4.4-11.66,8.88-23.81,11.28-37,5.69-31.33-7.09-48.6-31-55l.18-1c25.9-4.88,44.56-19.91,50.25-51.24,2.41-13.21,2.29-25.05,2.25-37.38.44-11.81.32-23.65,2.36-34.9,4.81-26.44,19.42-41.14,52.26-40.32l10.16.41.08-.41h24.53l8.84-27.09-28.56.58-11.29-.45c-48-1.92-85.9,15.79-94.08,60.82-2.5,13.71-2.64,27-2.87,40.81s-.47,27.59-3,41.29c-3.11,17.14-12.23,36-52.31,34.39L917,202c40.08,1.6,38.08,23,35.32,38.17-2.4,13.21-7.06,26.34-11.72,39.46s-9.41,26.74-11.82,40c-8.63,47.49,23.12,66.92,66.51,70L1397.93,391l.1-.64,11.24-.44c46.84-1.86,84.82-20.9,90.4-70.33,1.49-13.22.76-26.83,0-39.95s-1.58-26.25-.09-39.47c1.71-15.17,9.8-36.44,50.36-38l2.82-25C1512.16,178.76,1508.6,159.9,1510.54,142.78Z"/><polygon class="cls-1" points="1917 205.33 1575 202 1580 177.19 1917 177.19 1917 205.33"/><polygon class="cls-3" points="917.23 202.21 -0.48 202.21 -0.48 177.59 920 177 917.23 202.21"/></svg>