<svg id="Layer_1" data-name="Layer 1" xmlns="http://www.w3.org/2000/svg" viewBox="0 0 68.34 40.5"><defs><style>.cls-1{fill:#29abe2;}</style></defs><path class="cls-1" d="M63.84,14.81a26.66,26.66,0,0,1,1-4.28,26.8,26.8,0,0,0,1-4.22C66.61-.64,58.22.11,53.89.06c-.21,0-3.22-.1-3.23,0V0H42.5a8.83,8.83,0,0,0-4.33.93A3.75,3.75,0,0,0,36.27,4s-1.75,20.15-1.75,20.1L31.38,0a.05.05,0,0,0-.05,0H23.21a.06.06,0,0,0-.06,0l-13,33.36s0,0,0,0h5.52v0H27a2.46,2.46,0,0,1-2.13-1.89l-.08-6H21l.05-.18.8-2.89,1.5-5.2h0L26.46,6.16s1.32,20.65,1.32,20.65c.17,2.76.29,4.66.29,4.66a2.7,2.7,0,0,0,2.88,2h.9v0h13v0h2v0H49c2.06,0,3.87-1.3,4-2.91l.37-3.33H47.57v0H41.69s0,0,0,0L44,6.22s0,0,0,0C44.5,4,46.79,3.87,48.59,3.85c3.16,0,6.33,0,9.5-.05,2.21,0,3.73.63,3.44,3.18a26.8,26.8,0,0,1-.85,3.61,21.65,21.65,0,0,0-.94,3.87c-.37,3.24,1.15,4.8,3.76,5.3v.1a6.17,6.17,0,0,0-5,5.69,18.71,18.71,0,0,0,0,3.83,26,26,0,0,1,0,3.64c-.33,2.83-2,4.41-5.4,4.59l-1,0v.05H10.89v-.05l-1,0c-3.37-.18-4.53-1.76-4-4.59A28.41,28.41,0,0,1,7,29.38a21.41,21.41,0,0,0,1.2-3.83c.61-3.24-.76-5-3.31-5.69l0-.1a6.12,6.12,0,0,0,5.37-5.3,19,19,0,0,0,.24-3.87A25.14,25.14,0,0,1,10.77,7c.51-2.74,2.07-4.26,5.58-4.17l1.09,0v0h2.63L21,0,18,.06,16.75,0c-5.13-.19-9.18,1.64-10,6.3a24.9,24.9,0,0,0-.31,4.22,25.61,25.61,0,0,1-.31,4.28c-.34,1.77-1.31,3.72-5.6,3.56L0,21c4.28.17,4.48,2.37,4.18,3.94A25.13,25.13,0,0,1,2.93,29a25.83,25.83,0,0,0-1.26,4.14C.75,38,3.9,40,8.54,40.35l0,.15H51.8v-.07l1.2,0c5-.2,9.07-2.17,9.66-7.28a23.85,23.85,0,0,0,0-4.14,23.16,23.16,0,0,1,0-4.08c.18-1.57,1.05-3.77,5.38-3.94l.3-2.58C64,18.53,63.63,16.58,63.84,14.81Z"/></svg>