<svg id="Layer_1" data-name="Layer 1" xmlns="http://www.w3.org/2000/svg" xmlns:xlink="http://www.w3.org/1999/xlink" viewBox="0 0 765.46 196.58"><defs><style>.cls-1{fill:#ccc;}.cls-2{fill:#29abe2;}.cls-3{fill:url(#linear-gradient);}</style><linearGradient id="linear-gradient" x1="-1609.11" y1="2600.96" x2="-1320.43" y2="2600.96" gradientTransform="translate(-1324.86 2696.41) rotate(180)" gradientUnits="userSpaceOnUse"><stop offset="0" stop-color="#29abe2"/><stop offset="0.27" stop-color="#29abe2" stop-opacity="0.78"/><stop offset="0.87" stop-color="#29abe2" stop-opacity="0.22"/><stop offset="1" stop-color="#29abe2" stop-opacity="0.1"/></linearGradient></defs><polygon class="cls-1" points="763.57 103.31 592.07 101.74 592.07 89.17 763.57 89.17 763.57 103.31"/><path class="cls-1" d="M592.37,71.88c.78-6.89,2.7-13.82,4.62-20.75s3.81-13.61,4.59-20.5C605.39-3.12,566.06.52,545.75.3c-1,0-15.11-.48-15.16-.16l0-.14H492.35Q479.81,0,472,4.5t-8.9,14.87s-8.21,97.83-8.25,97.59L440.18.17A.22.22,0,0,0,440,0H401.86a.29.29,0,0,0-.27.17l-60.82,161.9c0,.13.06.25.22.25h25.88l0,.12h52.75c-5.31-1.09-9.27-4.6-10-9.2L409.26,124H391.33l.24-.87s3.74-14,3.77-14l7-25.27h-.05l14.86-53.91c0-.1,6.17,100.22,6.17,100.22.81,13.39,1.37,22.62,1.37,22.62.84,5.58,6.48,9.57,13.5,9.57h4.19v.12h61v-.12h9.45v.12h10.1c9.63,0,18.13-6.32,19-14.13l1.75-16.19H516.09l0,.22H488.52c-.14,0-.24-.09-.23-.2l11-102c0-.11.24-.06.27-.2,2.15-10.77,12.88-11.2,21.3-11.31,14.85-.19,29.7,0,44.56-.22,10.35-.13,17.51,3.06,16.12,15.42-.64,5.66-2.44,11.61-4,17.54-1.84,6.19-3.65,12.14-4.39,18.78-1.78,15.74,5.35,23.29,17.61,25.74l0,.49c-12.9,3.2-21.86,11.88-23.63,27.62a93.31,93.31,0,0,0,.19,18.6c.16,6.11.67,11.72,0,17.62-1.56,13.77-9.26,21.42-25.31,22.3l-4.87.2,0,.25h-193l0-.25-4.81-.2c-15.79-.88-21.25-8.53-18.75-22.3,1.07-5.9,3.23-11.51,5.19-17.62a106.62,106.62,0,0,0,5.65-18.6c2.85-15.74-3.55-24.42-15.51-27.62l.09-.49c13-2.45,22.33-10,25.18-25.74,1.21-6.64,1.15-12.59,1.13-18.78.22-5.94.16-11.89,1.18-17.54,2.41-13.28,9.73-20.67,26.19-20.25l5.09.2,0-.2h12.29L391.56,0,377.25.3,371.59.07c-24-1-43,7.93-47.14,30.56-1.25,6.88-1.32,13.57-1.44,20.5s-.23,13.86-1.48,20.74C320,80.48,315.4,90,295.32,89.15L293,101.69c20.09.81,21,11.49,19.62,19.12-1.2,6.64-3.54,13.23-5.87,19.82s-4.72,13.44-5.92,20.08c-4.33,23.85,10.47,33.62,32.21,35.18l202.87.69,0-.32,5.63-.22c23.47-.93,42.5-10.5,45.3-35.33.75-6.64.38-13.48,0-20.07s-.79-13.19,0-19.83c.86-7.62,4.91-18.31,25.24-19.11l1.41-12.54C593.19,90,591.4,80.48,592.37,71.88Z"/><path class="cls-2" d="M577.33,71.88c.77-6.89,2.7-13.82,4.61-20.75s3.82-13.61,4.59-20.5C590.34-3.12,551,.52,530.7.3c-1,0-15.11-.48-15.15-.16V0H477.31Q464.77,0,457,4.5T448.1,19.37s-8.21,97.83-8.25,97.59L425.13.17A.21.21,0,0,0,424.9,0H386.82a.29.29,0,0,0-.27.17l-60.83,161.9c-.05.13.06.25.22.25h25.89l0,.12h52.76c-5.32-1.09-9.28-4.6-10-9.2L394.22,124H376.29l.24-.87s3.74-14,3.76-14l7-25.27h-.06l14.86-53.91c0-.1,6.18,100.22,6.18,100.22.81,13.39,1.37,22.62,1.37,22.62.84,5.58,6.47,9.57,13.5,9.57h4.19l0,.12h61v-.12h9.45v.12h10.09c9.64,0,18.14-6.32,19-14.13l1.75-16.19H501l0,.22H473.48c-.14,0-.25-.09-.23-.2l11-102c0-.11.23-.06.26-.2,2.15-10.77,12.88-11.2,21.3-11.31,14.85-.19,29.71,0,44.56-.22,10.35-.13,17.52,3.06,16.13,15.42-.64,5.66-2.45,11.61-4,17.54-1.84,6.19-3.65,12.14-4.4,18.78-1.77,15.74,5.36,23.29,17.62,25.74l-.06.49c-12.89,3.2-21.85,11.88-23.62,27.62a93.34,93.34,0,0,0,.18,18.6c.17,6.11.68,11.72,0,17.62C550.72,174,543,181.68,527,182.56l-4.86.2,0,.25h-193l.05-.25-4.81-.2c-15.8-.88-21.25-8.53-18.75-22.3,1.07-5.9,3.22-11.51,5.18-17.62a106.63,106.63,0,0,0,5.66-18.6c2.85-15.74-3.56-24.42-15.51-27.62l.09-.49c13-2.45,22.33-10,25.18-25.74,1.2-6.64,1.14-12.59,1.12-18.78.23-5.94.16-11.89,1.19-17.54,2.41-13.28,9.73-20.67,26.18-20.25l5.1.2,0-.2h12.3L376.52,0,362.21.3,356.55.07c-24.05-1-43,7.93-47.15,30.56-1.24,6.88-1.31,13.57-1.43,20.5s-.23,13.86-1.48,20.74c-1.56,8.61-6.13,18.09-26.22,17.28L278,101.69c20.09.81,21,11.49,19.62,19.12-1.21,6.64-3.54,13.23-5.88,19.82s-4.71,13.44-5.92,20.08c-4.32,23.85,11.59,33.62,33.33,35.18l201.75.69.05-.32,5.63-.22c23.48-.93,42.51-10.5,45.3-35.33.75-6.64.38-13.48,0-20.07s-.79-13.19,0-19.83c.86-7.62,4.91-18.31,25.23-19.11l1.41-12.54C578.14,90,576.36,80.48,577.33,71.88Z"/><polygon class="cls-3" points="284.25 101.74 -4.43 101.74 -4.43 89.37 284.25 89.17 284.25 101.74"/></svg>