<svg id="Layer_1" data-name="Layer 1" xmlns="http://www.w3.org/2000/svg" viewBox="0 0 109 232"><defs><style>.cls-1{opacity:0.85;}.cls-2{fill:#29abe2;}.cls-3{opacity:0.24;}</style></defs><g class="cls-1"><path class="cls-2" d="M96.78,121.79q-20.28,3-22.43,33.66l-2.69,38.46q-1.38,19.82-10.33,28.42t-25.45,9.26l.76-10.88q10.67-.65,16.08-6.86t6.65-23.69l2.5-35.74Q64,124,83.31,118l0-.51q-18.5-5.83-16.5-34.44l2.66-37.94q1.21-17.49-3.33-23.7T51.06,14.58L51.82,3.7Q68.22,4.36,76,13t6.36,28.42L79.49,82q-2,28.62,17.87,31.46Z"/></g><g class="cls-3"><path class="cls-2" d="M88.78,121.79q-20.28,3-22.43,33.66l-2.69,38.46q-1.38,19.82-10.33,28.42t-25.45,9.26l.76-10.88q10.67-.65,16.08-6.86t6.65-23.69l2.5-35.74Q56,124,75.31,118l0-.51q-18.49-5.83-16.5-34.44l2.66-37.94q1.22-17.49-3.33-23.7T43.06,14.58L43.82,3.7Q60.22,4.36,68,13t6.36,28.42L71.49,82q-2,28.62,17.87,31.46Z"/></g></svg>