<svg id="Layer_1" data-name="Layer 1" xmlns="http://www.w3.org/2000/svg" viewBox="0 0 109 228"><defs><style>.cls-1{opacity:0.85;}.cls-2{fill:#29abe2;}.cls-3{opacity:0.24;}</style></defs><g class="cls-1"><path class="cls-2" d="M31.46,109.5q20.28-3,22.43-33.66l2.68-38.46Q58,17.58,66.91,9T92.36-.3L91.6,10.58q-10.66.64-16.09,6.86t-6.64,23.7l-2.5,35.73q-2.13,30.43-21.45,36.39l0,.52q18.49,5.82,16.49,34.44l-2.65,37.94q-1.21,17.47,3.33,23.69t15.12,6.86l-.76,10.88q-16.4-.65-24.15-9.26t-6.36-28.42l2.84-40.66q2-28.62-17.87-31.46Z"/></g><g class="cls-3"><path class="cls-2" d="M24.46,109.5q20.28-3,22.43-33.66l2.68-38.46Q51,17.58,59.91,9T85.36-.3L84.6,10.58q-10.66.64-16.09,6.86t-6.64,23.7l-2.5,35.73q-2.13,30.43-21.45,36.39l0,.52q18.49,5.82,16.49,34.44l-2.65,37.94q-1.21,17.47,3.33,23.69t15.12,6.86l-.76,10.88q-16.39-.65-24.15-9.26t-6.36-28.42l2.84-40.66q2-28.62-17.87-31.46Z"/></g></svg>